#!OML:ASF H:\BreakDance\Project 1\Capture day 1\Session 1\Male.ASF
:FULLY-SPECIFIED
:DEGREES
2506
root -9.3235 18.2383 -5.18934 -101.222 -592.803 -293.541
lowerback -3.01548 6.89442 9.41891
upperback -5.39397 9.50702 2.18457
thorax -2.86124 4.61033 -2.78011
lowerneck -15.2323 3.40703 -0.970438
upperneck -15.7397 6.51426 16.7865
head -2.75649 3.20015 5.53949
rclavicle 3.18055e-014 2.54444e-014
rhumerus 74.4858 10.9823 -19.0922
rradius 72.6094
rwrist -25.3539
rhand -17.1462 -21.2785
rfingers 7.12502
rthumb 9.09432 668.938
lclavicle 3.18055e-014 2.54444e-014
lhumerus 46.3388 57.9198 17.4858
lradius 27.2198
lwrist -21.3841
lhand -61.5905 -799.256
lfingers 7.12502
lthumb -33.6647 -52.3989
rfemur -14.3151 34.3933 -23.0914
rtibia 39.0018
rfoot -62.7407 -33.731
rtoes 51.8045
lfemur 721.348 -3.18562 695.213
ltibia 30.9379
lfoot -1.51818 -7.66832
ltoes -7.0774
2507
root -9.34042 18.2281 -5.22226 -104.516 -591.727 -297.346
lowerback -2.95568 7.07757 9.55338
upperback -5.13863 9.76749 2.6636
thorax -2.66224 4.76493 -2.33961
lowerneck -14.4425 3.77985 -1.08846
upperneck -13.9984 6.90786 17.2515
head -2.39692 3.4552 5.68069
rclavicle 1.91628e-013 6.04305e-014
rhumerus 72.9815 12.4301 -19.2526
rradius 74.7206
rwrist -26.3605
rhand -16.7134 -22.1472
rfingers 7.12502
rthumb 9.51184 668.087
lclavicle 1.91628e-013 6.04305e-014
lhumerus 45.0855 58.7281 16.685
lradius 26.6769
lwrist -23.113
lhand -61.3747 -800.976
lfingers 7.12502
lthumb -33.4595 -54.0741
rfemur -17.3133 30.6553 -25.5546
rtibia 40.2546
rfoot -57.3944 -34.0384
rtoes 49.4578
lfemur 721.34 -2.06643 692.605
ltibia 31.1966
lfoot -2.65987 -8.78349
ltoes -11.0961
2508
root -9.35153 18.2097 -5.26053 -107.585 -590.658 -300.894
lowerback -2.78249 7.11613 9.76947
upperback -5.04801 9.86224 3.23043
thorax -2.72464 4.81864 -1.89142
lowerneck -13.3274 4.43072 -0.491465
upperneck -12.2745 7.56916 17.1879
head -2.10214 3.81054 5.52326
rclavicle -3.81667e-014 -1.59028e-014
rhumerus 71.5905 14.3883 -19.6323
rradius 76.7021
rwrist -26.4618
rhand -16.7467 -23.2417
rfingers 7.12502
rthumb 9.47976 666.991
lclavicle -3.81667e-014 -1.59028e-014
lhumerus 32.646 55.9666 4.23798
lradius 27.9896
lwrist -18.167
lhand -61.303 -800.999
lfingers 7.12502
lthumb -33.3914 -54.0825
rfemur -20.0949 25.5225 -27.3928
rtibia 41.5677
rfoot -50.836 -33.5086
rtoes 46.1211
lfemur 720.999 -0.854699 690.209
ltibia 31.7256
lfoot -4.03922 -10.03
ltoes -15.8553
2509
root -9.35955 18.1758 -5.30653 -110.46 -589.935 -304.201
lowerback -2.34277 7.21435 10.6649
upperback -4.63958 10.0371 3.75855
thorax -2.48404 4.90681 -1.83695
lowerneck -13.5261 4.68396 0.0820586
upperneck -9.87902 7.44189 16.8494
head -1.32073 3.86995 5.33815
rclavicle 5.48646e-014 4.45278e-014
rhumerus 70.0021 15.5273 -19.8944
rradius 78.6531
rwrist -25.5847
rhand -18.589 -22.1008
rfingers 7.12502
rthumb 7.70182 668.059
lclavicle 5.48646e-014 4.45278e-014
lhumerus 30.9784 56.818 3.18359
lradius 27.5842
lwrist -19.8371
lhand -61.5468 -801.492
lfingers 7.12502
lthumb -33.6231 -54.6253
rfemur -22.6485 20.3847 -28.2835
rtibia 43.0104
rfoot -44.6319 -32.2337
rtoes 41.8454
lfemur 720.341 0.565961 688.418
ltibia 32.5737
lfoot -5.53967 -11.872
ltoes -20.7665
2510
root -9.357 18.1334 -5.35791 -113.112 -589.071 -307.286
lowerback -1.56716 7.33767 11.5973
upperback -4.39268 10.3221 4.23871
thorax -2.57507 5.03006 -1.90517
lowerneck -12.8267 4.89052 0.501324
upperneck -8.16472 7.43145 16.5175
head -0.900473 3.91105 5.15247
rclavicle -9.78021e-014 9.85972e-014
rhumerus 67.7072 16.4093 -19.9332
rradius 80.8505
rwrist -24.0676
rhand -21.0392 -20.5102
rfingers 7.12502
rthumb 5.33646 669.577
lclavicle -9.78021e-014 9.85972e-014
lhumerus 23.0594 54.2781 -4.45027
lradius 28.4186
lwrist -16.512
lhand -61.6619 -801.004
lfingers 7.12502
lthumb -33.7325 -54.1613
rfemur -25.3016 15.22 -28.9844
rtibia 44.5576
rfoot -39.1624 -29.8104
rtoes 38.6675
lfemur 719.263 2.31586 686.748
ltibia 33.8064
lfoot -6.93719 -12.5505
ltoes -25.7519
2511
root -9.34202 18.0875 -5.41753 -115.39 -587.884 -309.996
lowerback -0.58746 7.3347 11.9866
upperback -3.79805 10.4229 4.58608
thorax -2.48382 5.08589 -1.84058
lowerneck -13.5833 5.10998 0.882681
upperneck -5.91838 7.29449 16.4802
head -0.0916021 3.9969 5.13696
rclavicle -1.07145e-013 -4.77083e-014
rhumerus 67.0577 17.2156 -20.6142
rradius 81.3517
rwrist -21.3851
rhand -21.3861 -20.5226
rfingers 7.12502
rthumb 5.00158 669.556
lclavicle -1.07145e-013 -4.77083e-014
lhumerus 14.9351 51.3327 -12.4676
lradius 29.4027
lwrist -12.147
lhand -61.4584 -800.502
lfingers 7.12502
lthumb -33.5391 -53.6171
rfemur -27.8619 8.80273 -29.3285
rtibia 46.2761
rfoot -32.9548 -26.9025
rtoes 32.4544
lfemur 717.698 4.12716 684.863
ltibia 35.4633
lfoot -8.20767 -13.4239
ltoes -27.5762
2512
root -9.32311 18.0331 -5.47703 -117.383 -586.827 -312.417
lowerback 0.425341 7.33225 12.4529
upperback -3.31274 10.5536 4.97935
thorax -2.52175 5.1465 -1.78271
lowerneck -13.5013 5.55074 1.74545
upperneck -4.9506 7.62787 15.9116
head 0.194483 4.19746 4.84401
rclavicle 7.35503e-015 1.7175e-013
rhumerus 65.5756 17.9845 -20.6544
rradius 82.4319
rwrist -19.998
rhand -22.089 -20.664
rfingers 7.12502
rthumb 4.32285 669.4
lclavicle 7.35503e-015 1.7175e-013
lhumerus 7.645 47.0724 -19.532
lradius 30.4086
lwrist -6.94078
lhand -61.202 -800.021
lfingers 7.12502
lthumb -33.2954 -53.0831
rfemur -30.33 3.41837 -29.2809
rtibia 48.0918
rfoot -28.6905 -23.3198
rtoes 27.3921
lfemur 715.755 5.70797 683.135
ltibia 37.5562
lfoot -7.91127 -13.8428
ltoes -28.4732
2513
root -9.29996 17.9632 -5.54151 -119.271 -586.038 -314.702
lowerback 1.58549 7.31216 13.1484
upperback -2.81452 10.7012 5.43198
thorax -2.6012 5.20594 -1.80045
lowerneck -12.8805 5.49333 1.94165
upperneck -3.83101 7.37307 15.7853
head 0.459348 4.08983 4.76104
rclavicle 1.95803e-013 -2.00375e-013
rhumerus 64.0491 18.3671 -20.5547
rradius 83.2901
rwrist -17.8559
rhand -22.6456 -21.9716
rfingers 7.12502
rthumb 3.7853 668.082
lclavicle 1.95803e-013 -2.00375e-013
lhumerus 6.31106 47.9292 -20.4202
lradius 29.5327
lwrist -8.15752
lhand -61.105 -800.08
lfingers 7.12502
lthumb -33.2032 -53.1225
rfemur -32.6826 -1.0278 -28.729
rtibia 50.0441
rfoot -25.4245 -20.3561
rtoes 21.9862
lfemur 713.497 7.01456 681.705
ltibia 40.0661
lfoot -8.14307 -13.5578
ltoes -29.1338
2514
root -9.27455 17.8787 -5.61425 -121.154 -585.474 -316.916
lowerback 2.89937 7.28443 14.0304
upperback -2.24488 10.8781 5.91199
thorax -2.65951 5.27509 -1.89857
lowerneck -12.7775 5.63155 2.13296
upperneck -2.58059 7.35374 15.7983
head 0.822283 4.14226 4.75538
rclavicle -7.7526e-014 1.27222e-013
rhumerus 62.1575 18.3521 -20.4714
rradius 84.1319
rwrist -15.4803
rhand -23.355 -23.232
rfingers 7.12502
rthumb 3.10023 666.811
lclavicle -7.7526e-014 1.27222e-013
lhumerus 2.41499 46.131 -23.6768
lradius 29.7165
lwrist -5.95998
lhand -61.1204 -799.868
lfingers 7.12502
lthumb -33.2178 -52.9141
rfemur -34.9703 -4.89098 -27.7431
rtibia 52.113
rfoot -22.6518 -18.5839
rtoes 17.0881
lfemur 710.975 7.98854 680.545
ltibia 42.9685
lfoot -8.40637 -12.7963
ltoes -30.072
2515
root -9.23788 17.7932 -5.68959 -122.747 -584.644 -318.706
lowerback 4.42138 7.23172 14.3611
upperback -1.65153 11.0451 6.32299
thorax -2.88403 5.33908 -1.82493
lowerneck -12.594 5.79096 2.54351
upperneck -1.50426 7.36065 15.5711
head 1.13257 4.18819 4.63725
rclavicle -9.93923e-015 1.59028e-014
rhumerus 60.2606 18.1165 -20.3238
rradius 84.8033
rwrist -13.5147
rhand -24.3724 -23.8738
rfingers 7.12502
rthumb 2.1177 666.157
lclavicle -9.93923e-015 1.59028e-014
lhumerus 1.26194 47.2267 -24.2845
lradius 28.9092
lwrist -6.9523
lhand -61.2263 -799.746
lfingers 7.12502
lthumb -33.3185 -52.8139
rfemur -37.3054 -8.37309 -27.0154
rtibia 54.2798
rfoot -21.47 -13.5809
rtoes 16.1845
lfemur 708.187 8.69775 679.107
ltibia 46.1474
lfoot -8.75703 -11.9798
ltoes -30.9721
2516
root -9.18571 17.7228 -5.76749 -123.898 -583.504 -319.908
lowerback 6.02468 7.18489 14.0844
upperback -1.0956 11.2001 6.60216
thorax -3.27146 5.39617 -1.60553
lowerneck -11.9736 5.86748 3.02222
upperneck -0.697981 7.3159 15.293
head 1.30071 4.17011 4.46753
rclavicle -6.99722e-014 -5.725e-014
rhumerus 58.4032 17.7665 -20.1899
rradius 85.185
rwrist -11.9624
rhand -25.437 -24.6448
rfingers 7.12502
rthumb 1.08946 665.378
lclavicle -6.99722e-014 -5.725e-014
lhumerus -1.73824 45.7056 -26.5422
lradius 29.0555
lwrist -4.93594
lhand -61.1209 -799.074
lfingers 7.12502
lthumb -33.2183 -52.12
rfemur -39.5476 -11.5182 -26.7887
rtibia 56.4693
rfoot -20.2984 -9.19761
rtoes 19.001
lfemur 705.104 9.31702 677.299
ltibia 49.5828
lfoot -9.21546 -11.3428
ltoes -30.8469
2517
root -9.15376 17.6279 -5.84738 -125.443 -583.27 -321.5
lowerback 7.60657 7.12972 14.7918
upperback -0.523034 11.4147 7.03356
thorax -3.48105 5.46448 -1.71143
lowerneck -11.2602 5.91836 3.02081
upperneck -0.220468 7.36042 15.7402
head 1.31298 4.19232 4.58632
rclavicle 7.55382e-014 -1.94014e-013
rhumerus 56.0199 17.1829 -20.165
rradius 85.5104
rwrist -10.3006
rhand -26.2252 -25.8197
rfingers 7.12502
rthumb 0.328205 664.201
lclavicle 7.55382e-014 -1.94014e-013
lhumerus -6.93494 39.604 -30.831
lradius 30.6089
lwrist 2.25791
lhand -60.7998 -798.4
lfingers 7.12502
lthumb -32.9129 -51.3812
rfemur -41.6888 -14.1932 -25.5051
rtibia 58.5925
rfoot -18.7623 -7.32153
rtoes 17.5384
lfemur 702.127 9.77678 676.527
ltibia 53.0509
lfoot -9.76109 -10.8054
ltoes -29.9167
2518
root -9.13117 17.5064 -5.93343 -127.748 -584.383 -323.956
lowerback 9.37552 6.93372 16.9342
upperback -0.012511 11.6658 7.75354
thorax -3.65359 5.50497 -2.2465
lowerneck -10.9619 5.97189 3.11334
upperneck 0.520665 7.31244 16.3941
head 1.4742 4.20648 4.77606
rclavicle 1.54257e-013 5.725e-014
rhumerus 53.4291 16.3699 -20.2571
rradius 85.6486
rwrist -8.55429
rhand -26.9406 -27.1068
rfingers 7.12502
rthumb -0.362672 662.914
lclavicle 1.54257e-013 5.725e-014
lhumerus -8.38585 39.2144 -31.6952
lradius 30.5748
lwrist 3.4326
lhand -60.7479 -797.997
lfingers 7.12502
lthumb -32.8636 -50.9677
rfemur -43.1967 -16.1514 -22.7789
rtibia 60.4653
rfoot -18.2728 -7.22455
rtoes 12.6728
lfemur 699.248 9.87715 677.364
ltibia 56.5852
lfoot -9.90339 -10.1363
ltoes -29.8322
2519
root -9.09064 17.4119 -6.00603 -128.445 -583.447 -324.853
lowerback 10.7652 7.05704 16.6528
upperback 0.448893 12.0282 7.85585
thorax -3.94489 5.65752 -2.20191
lowerneck -10.6848 5.99111 3.30023
upperneck 1.46641 7.15554 17.0864
head 1.71038 4.18031 4.96692
rclavicle 6.20208e-014 -8.90555e-014
rhumerus 51.0227 15.5035 -20.4305
rradius 85.4189
rwrist -7.08312
rhand -27.0664 -28.4954
rfingers 7.12502
rthumb -0.484191 661.525
lclavicle 6.20208e-014 -8.90555e-014
lhumerus -9.07847 39.8182 -32.0074
lradius 30.2585
lwrist 3.75809
lhand -60.6977 -797.524
lfingers 7.12502
lthumb -32.8158 -50.4852
rfemur -45.6983 -17.9971 -22.4039
rtibia 62.2712
rfoot -17.6608 -6.32771
rtoes 9.23027
lfemur 695.601 9.95528 675.886
ltibia 59.9834
lfoot -11.0226 -10.0707
ltoes -33.7522
